<?xml version="1.0" standalone="no"?>
<!DOCTYPE svg PUBLIC "-//W3C//DTD SVG 20010904//EN"
 "http://www.w3.org/TR/2001/REC-SVG-20010904/DTD/svg10.dtd">
<svg version="1.0" xmlns="http://www.w3.org/2000/svg"
 width="512.000000pt" height="512.000000pt" viewBox="0 0 512.000000 512.000000"
 preserveAspectRatio="xMidYMid meet">
<metadata>
Created by potrace 1.11, written by Peter Selinger 2001-2013
</metadata>
<g transform="translate(0.000000,512.000000) scale(0.100000,-0.100000)"
fill="#000000" stroke="none">
<path d="M445 4691 c-63 -26 -81 -120 -32 -168 25 -25 33 -27 169 -35 235 -12
293 -32 331 -116 l22 -47 0 -1770 0 -1770 -23 -47 c-40 -81 -85 -97 -292 -107
-115 -6 -163 -12 -187 -24 -73 -38 -62 -155 17 -183 27 -10 263 -13 1003 -13
842 -1 972 1 1004 14 48 20 62 41 63 96 0 45 -15 69 -60 95 -8 4 -84 11 -170
15 -85 4 -172 13 -192 19 -59 17 -96 55 -115 118 -16 52 -18 122 -18 832 l0
775 114 0 114 0 491 -762 c270 -419 543 -844 606 -944 63 -99 129 -197 146
-217 l32 -37 561 -3 c609 -3 610 -3 647 52 21 33 14 100 -13 128 -10 10 -49
29 -85 42 -187 68 -397 283 -748 766 -193 266 -559 813 -692 1036 -5 6 38 20
118 37 482 106 783 323 903 654 99 271 88 604 -29 849 -182 380 -635 637
-1248 709 -105 12 -322 15 -1272 14 -630 0 -1154 -4 -1165 -8z m1375 -205 c0
-3 -11 -26 -24 -51 -14 -25 -30 -69 -36 -98 -7 -36 -10 -579 -8 -1822 3 -1652
4 -1773 20 -1820 10 -27 18 -53 18 -57 0 -5 -153 -8 -340 -8 l-339 0 14 40
c33 95 35 185 35 1898 -1 1745 0 1727 -35 1890 l-7 32 351 0 c193 0 351 -2
351 -4z m798 -26 c294 -58 459 -259 512 -625 5 -38 13 -142 16 -230 12 -293
-25 -571 -93 -698 -44 -82 -130 -162 -217 -203 -147 -67 -306 -93 -643 -101
l-233 -6 0 769 c0 423 4 806 10 851 19 167 94 237 282 263 85 11 253 2 366
-20z m664 -86 c219 -71 379 -162 502 -288 124 -126 194 -272 216 -451 30 -240
-39 -492 -175 -642 -90 -99 -243 -192 -410 -248 -54 -18 -203 -55 -222 -55 -6
0 4 26 23 57 85 142 128 316 146 590 21 329 -13 626 -96 837 -30 74 -59 130
-114 214 -13 20 -13 22 2 22 9 0 67 -16 128 -36z m-292 -2116 c408 -655 834
-1248 1105 -1536 l87 -92 -304 0 -304 0 -394 612 c-804 1247 -733 1132 -707
1140 12 3 63 7 112 8 50 1 119 6 155 10 36 4 85 8 110 8 l45 2 95 -152z"/>
</g>
</svg>
