<?xml version="1.0" encoding="utf-8"?>
<!-- Generator: Adobe Illustrator 24.1.1, SVG Export Plug-In . SVG Version: 6.00 Build 0)  -->
<svg version="1.1" id="Layer_1" xmlns="http://www.w3.org/2000/svg" xmlns:xlink="http://www.w3.org/1999/xlink" x="0px" y="0px"
	 viewBox="0 0 733.7 50" style="enable-background:new 0 0 733.7 50;" xml:space="preserve">
<style type="text/css">
	.st0{fill:#FF0000;stroke:#FF0000;stroke-width:2;stroke-miterlimit:12;}
	.st1{fill:#0000FF;stroke:#0000FF;stroke-width:2;stroke-miterlimit:12;}
	.st2{fill:none;stroke:#000000;stroke-width:2;}
	.st3{fill:#FF0000;}
	.st4{font-family:'ArialMT';}
	.st5{font-size:22px;}
	.st6{font-size:25px;}
	.st7{fill:#0000FF;}
</style>
<g transform="translate(0.5,0.5)">
	<path class="st0" d="M350.7,11.5h-355 M316.2,3.5v17 M281.2,3.5v17 M246.2,3.5v17 M211.2,3.5v17 M176.2,3.5v17 M141.2,3.5v17
		 M106.2,3.5v17 M71.2,3.5v17 M36.2,3.5v17 M1.2,3.5v17 M-2.3,7c-1.3,3-1.3,6,0,9c-5.3-2-11.7-3.5-19-4.5C-14,10.5-7.7,9-2.3,7z"/>
	<path class="st1" d="M351.7,11.5h355 M386.2,3.5v17 M421.2,3.5v17 M456.2,3.5v17 M491.2,3.5v17 M526.2,3.5v17 M561.2,3.5v17
		 M596.2,3.5v17 M631.2,3.5v17 M666.2,3.5v17 M701.2,3.5v17 M704.7,7c1.3,3,1.3,6,0,9c5.3-2,11.7-3.5,19-4.5
		C716.3,10.5,710,9,704.7,7z M351.7,13.5h34"/>
	<path class="st2" d="M351.2,3.5v17"/>
</g>
<g>
	<text transform="matrix(1 0 0 1 18.6667 44)" class="st3 st4 st5">-9</text>
	<text transform="matrix(1 0 0 1 53.6667 44)" class="st3 st4 st5">-8</text>
	<text transform="matrix(1 0 0 1 88.6667 44)" class="st3 st4 st5">-7</text>
	<text transform="matrix(1 0 0 1 123.6667 44)" class="st3 st4 st5">-6</text>
	<text transform="matrix(1 0 0 1 158.6667 44)" class="st3 st4 st5">-5</text>
	<text transform="matrix(1 0 0 1 193.6667 44)" class="st3 st4 st5">-4</text>
	<text transform="matrix(1 0 0 1 228.6667 44)" class="st3 st4 st5">-3</text>
	<text transform="matrix(1 0 0 1 263.6667 44)" class="st3 st4 st5">-2</text>
	<text transform="matrix(1 0 0 1 298.6667 44)" class="st3 st4 st5">-1</text>
</g>
<text transform="matrix(1 0 0 1 343.6667 46)" class="st4 st6">0</text>
<g>
	<text transform="matrix(1 0 0 1 658.6667 44)" class="st7 st4 st5">9</text>
	<text transform="matrix(1 0 0 1 623.6667 44)" class="st7 st4 st5">8</text>
	<text transform="matrix(1 0 0 1 588.6667 44)" class="st7 st4 st5">7</text>
	<text transform="matrix(1 0 0 1 553.6667 44)" class="st7 st4 st5">6</text>
	<text transform="matrix(1 0 0 1 518.6667 44)" class="st7 st4 st5">5</text>
	<text transform="matrix(1 0 0 1 483.6667 44)" class="st7 st4 st5">4</text>
	<text transform="matrix(1 0 0 1 450.6667 44)" class="st7 st4 st5">3</text>
	<text transform="matrix(1 0 0 1 413.6667 44)" class="st7 st4 st5">2</text>
	<text transform="matrix(1 0 0 1 378.6667 44)" class="st7 st4 st5">1</text>
</g>
</svg>
